<mxfile host="app.diagrams.net" agent="Mozilla/5.0 (Windows NT 10.0; Win64; x64) AppleWebKit/537.36 (KHTML, like Gecko) Chrome/130.0.0.0 Safari/537.36" version="24.8.4">
  <diagram name="Page-1" id="DYGeEAk5JKBXzi8a6UF9">
    <mxGraphModel dx="875" dy="521" grid="1" gridSize="10" guides="1" tooltips="1" connect="1" arrows="1" fold="1" page="1" pageScale="1" pageWidth="1169" pageHeight="827" math="0" shadow="0">
      <root>
        <mxCell id="0" />
        <mxCell id="1" parent="0" />
        <mxCell id="gBT472l6DTMxymifZ7BF-7" style="edgeStyle=orthogonalEdgeStyle;rounded=0;orthogonalLoop=1;jettySize=auto;html=1;exitX=0;exitY=0.25;exitDx=0;exitDy=0;exitPerimeter=0;endArrow=none;endFill=0;" edge="1" parent="1" source="gBT472l6DTMxymifZ7BF-1">
          <mxGeometry relative="1" as="geometry">
            <mxPoint x="60" y="145" as="targetPoint" />
          </mxGeometry>
        </mxCell>
        <mxCell id="gBT472l6DTMxymifZ7BF-9" style="edgeStyle=orthogonalEdgeStyle;rounded=0;orthogonalLoop=1;jettySize=auto;html=1;exitX=0;exitY=0.75;exitDx=0;exitDy=0;exitPerimeter=0;endArrow=none;endFill=0;" edge="1" parent="1" source="gBT472l6DTMxymifZ7BF-1">
          <mxGeometry relative="1" as="geometry">
            <mxPoint x="60" y="175" as="targetPoint" />
          </mxGeometry>
        </mxCell>
        <mxCell id="gBT472l6DTMxymifZ7BF-1" value="" style="verticalLabelPosition=bottom;shadow=0;dashed=0;align=center;html=1;verticalAlign=top;shape=mxgraph.electrical.logic_gates.logic_gate;operation=and;negating=1;negSize=0.15;" vertex="1" parent="1">
          <mxGeometry x="260" y="130" width="100" height="60" as="geometry" />
        </mxCell>
        <mxCell id="gBT472l6DTMxymifZ7BF-8" value="op" style="text;html=1;align=center;verticalAlign=middle;resizable=0;points=[];autosize=1;strokeColor=none;fillColor=none;" vertex="1" parent="1">
          <mxGeometry x="21" y="130" width="40" height="30" as="geometry" />
        </mxCell>
        <mxCell id="gBT472l6DTMxymifZ7BF-10" value="select" style="text;html=1;align=center;verticalAlign=middle;resizable=0;points=[];autosize=1;strokeColor=none;fillColor=none;" vertex="1" parent="1">
          <mxGeometry x="11" y="160" width="50" height="30" as="geometry" />
        </mxCell>
        <mxCell id="gBT472l6DTMxymifZ7BF-12" style="edgeStyle=orthogonalEdgeStyle;rounded=0;orthogonalLoop=1;jettySize=auto;html=1;exitX=0;exitY=0.25;exitDx=0;exitDy=0;exitPerimeter=0;endArrow=none;endFill=0;" edge="1" parent="1" source="gBT472l6DTMxymifZ7BF-11">
          <mxGeometry relative="1" as="geometry">
            <mxPoint x="120" y="225" as="targetPoint" />
          </mxGeometry>
        </mxCell>
        <mxCell id="gBT472l6DTMxymifZ7BF-13" style="edgeStyle=orthogonalEdgeStyle;rounded=0;orthogonalLoop=1;jettySize=auto;html=1;exitX=0;exitY=0.75;exitDx=0;exitDy=0;exitPerimeter=0;endArrow=none;endFill=0;" edge="1" parent="1" source="gBT472l6DTMxymifZ7BF-11">
          <mxGeometry relative="1" as="geometry">
            <mxPoint x="120" y="255" as="targetPoint" />
          </mxGeometry>
        </mxCell>
        <mxCell id="gBT472l6DTMxymifZ7BF-11" value="" style="verticalLabelPosition=bottom;shadow=0;dashed=0;align=center;html=1;verticalAlign=top;shape=mxgraph.electrical.logic_gates.logic_gate;operation=or;" vertex="1" parent="1">
          <mxGeometry x="260" y="210" width="100" height="60" as="geometry" />
        </mxCell>
        <mxCell id="gBT472l6DTMxymifZ7BF-16" value="" style="verticalLabelPosition=bottom;shadow=0;dashed=0;align=center;html=1;verticalAlign=top;shape=mxgraph.electrical.logic_gates.logic_gate;operation=and;" vertex="1" parent="1">
          <mxGeometry x="400" y="170" width="100" height="60" as="geometry" />
        </mxCell>
        <mxCell id="gBT472l6DTMxymifZ7BF-17" style="edgeStyle=orthogonalEdgeStyle;rounded=0;orthogonalLoop=1;jettySize=auto;html=1;exitX=1;exitY=0.5;exitDx=0;exitDy=0;exitPerimeter=0;entryX=0;entryY=0.25;entryDx=0;entryDy=0;entryPerimeter=0;endArrow=none;endFill=0;" edge="1" parent="1" source="gBT472l6DTMxymifZ7BF-1" target="gBT472l6DTMxymifZ7BF-16">
          <mxGeometry relative="1" as="geometry" />
        </mxCell>
        <mxCell id="gBT472l6DTMxymifZ7BF-18" style="edgeStyle=orthogonalEdgeStyle;rounded=0;orthogonalLoop=1;jettySize=auto;html=1;exitX=1;exitY=0.5;exitDx=0;exitDy=0;exitPerimeter=0;entryX=0;entryY=0.75;entryDx=0;entryDy=0;entryPerimeter=0;endArrow=none;endFill=0;" edge="1" parent="1" source="gBT472l6DTMxymifZ7BF-11" target="gBT472l6DTMxymifZ7BF-16">
          <mxGeometry relative="1" as="geometry" />
        </mxCell>
        <mxCell id="gBT472l6DTMxymifZ7BF-23" style="edgeStyle=orthogonalEdgeStyle;rounded=0;orthogonalLoop=1;jettySize=auto;html=1;exitX=0;exitY=0.5;exitDx=0;exitDy=0;exitPerimeter=0;endArrow=oval;endFill=1;" edge="1" parent="1" source="gBT472l6DTMxymifZ7BF-20">
          <mxGeometry relative="1" as="geometry">
            <mxPoint x="145" y="225" as="targetPoint" />
          </mxGeometry>
        </mxCell>
        <mxCell id="gBT472l6DTMxymifZ7BF-20" value="" style="verticalLabelPosition=bottom;shadow=0;dashed=0;align=center;html=1;verticalAlign=top;shape=mxgraph.electrical.logic_gates.inverter_2;rotation=90;" vertex="1" parent="1">
          <mxGeometry x="110" y="295" width="70" height="40" as="geometry" />
        </mxCell>
        <mxCell id="gBT472l6DTMxymifZ7BF-25" style="edgeStyle=orthogonalEdgeStyle;rounded=0;orthogonalLoop=1;jettySize=auto;html=1;exitX=0;exitY=0.5;exitDx=0;exitDy=0;exitPerimeter=0;endArrow=oval;endFill=1;" edge="1" parent="1" source="gBT472l6DTMxymifZ7BF-21">
          <mxGeometry relative="1" as="geometry">
            <mxPoint x="245" y="175" as="targetPoint" />
          </mxGeometry>
        </mxCell>
        <mxCell id="gBT472l6DTMxymifZ7BF-21" value="" style="verticalLabelPosition=bottom;shadow=0;dashed=0;align=center;html=1;verticalAlign=top;shape=mxgraph.electrical.logic_gates.inverter_2;rotation=90;" vertex="1" parent="1">
          <mxGeometry x="210" y="295" width="70" height="40" as="geometry" />
        </mxCell>
        <mxCell id="gBT472l6DTMxymifZ7BF-24" style="edgeStyle=orthogonalEdgeStyle;rounded=0;orthogonalLoop=1;jettySize=auto;html=1;exitX=0;exitY=0.5;exitDx=0;exitDy=0;exitPerimeter=0;endArrow=oval;endFill=1;" edge="1" parent="1" source="gBT472l6DTMxymifZ7BF-22">
          <mxGeometry relative="1" as="geometry">
            <mxPoint x="195" y="255" as="targetPoint" />
          </mxGeometry>
        </mxCell>
        <mxCell id="gBT472l6DTMxymifZ7BF-22" value="" style="verticalLabelPosition=bottom;shadow=0;dashed=0;align=center;html=1;verticalAlign=top;shape=mxgraph.electrical.logic_gates.inverter_2;rotation=90;" vertex="1" parent="1">
          <mxGeometry x="160" y="295" width="70" height="40" as="geometry" />
        </mxCell>
        <mxCell id="gBT472l6DTMxymifZ7BF-26" value="" style="verticalLabelPosition=bottom;shadow=0;dashed=0;align=center;html=1;verticalAlign=top;shape=mxgraph.electrical.logic_gates.logic_gate;operation=or;" vertex="1" parent="1">
          <mxGeometry x="295" y="375" width="100" height="60" as="geometry" />
        </mxCell>
        <mxCell id="gBT472l6DTMxymifZ7BF-27" value="" style="verticalLabelPosition=bottom;shadow=0;dashed=0;align=center;html=1;verticalAlign=top;shape=mxgraph.electrical.logic_gates.logic_gate;operation=and;" vertex="1" parent="1">
          <mxGeometry x="195" y="390" width="100" height="60" as="geometry" />
        </mxCell>
        <mxCell id="gBT472l6DTMxymifZ7BF-28" style="edgeStyle=orthogonalEdgeStyle;rounded=0;orthogonalLoop=1;jettySize=auto;html=1;exitX=1;exitY=0.5;exitDx=0;exitDy=0;exitPerimeter=0;entryX=0;entryY=0.25;entryDx=0;entryDy=0;entryPerimeter=0;endArrow=none;endFill=0;" edge="1" parent="1" source="gBT472l6DTMxymifZ7BF-22" target="gBT472l6DTMxymifZ7BF-27">
          <mxGeometry relative="1" as="geometry">
            <Array as="points">
              <mxPoint x="195" y="390" />
              <mxPoint x="195" y="390" />
            </Array>
          </mxGeometry>
        </mxCell>
        <mxCell id="gBT472l6DTMxymifZ7BF-29" style="edgeStyle=orthogonalEdgeStyle;rounded=0;orthogonalLoop=1;jettySize=auto;html=1;exitX=1;exitY=0.5;exitDx=0;exitDy=0;exitPerimeter=0;entryX=0;entryY=0.75;entryDx=0;entryDy=0;entryPerimeter=0;endArrow=none;endFill=0;" edge="1" parent="1" source="gBT472l6DTMxymifZ7BF-20" target="gBT472l6DTMxymifZ7BF-27">
          <mxGeometry relative="1" as="geometry" />
        </mxCell>
        <mxCell id="gBT472l6DTMxymifZ7BF-30" style="edgeStyle=orthogonalEdgeStyle;rounded=0;orthogonalLoop=1;jettySize=auto;html=1;exitX=1;exitY=0.5;exitDx=0;exitDy=0;exitPerimeter=0;entryX=0;entryY=0.25;entryDx=0;entryDy=0;entryPerimeter=0;endArrow=none;endFill=0;" edge="1" parent="1" source="gBT472l6DTMxymifZ7BF-21" target="gBT472l6DTMxymifZ7BF-26">
          <mxGeometry relative="1" as="geometry">
            <Array as="points">
              <mxPoint x="245" y="370" />
              <mxPoint x="270" y="370" />
              <mxPoint x="270" y="390" />
            </Array>
          </mxGeometry>
        </mxCell>
        <mxCell id="gBT472l6DTMxymifZ7BF-34" style="edgeStyle=orthogonalEdgeStyle;rounded=0;orthogonalLoop=1;jettySize=auto;html=1;exitX=1;exitY=0.25;exitDx=0;exitDy=0;exitPerimeter=0;endArrow=none;endFill=0;" edge="1" parent="1" source="gBT472l6DTMxymifZ7BF-31">
          <mxGeometry relative="1" as="geometry">
            <mxPoint x="120" y="225" as="targetPoint" />
            <Array as="points">
              <mxPoint x="630" y="200" />
              <mxPoint x="630" y="500" />
              <mxPoint x="90" y="500" />
              <mxPoint x="90" y="225" />
            </Array>
          </mxGeometry>
        </mxCell>
        <mxCell id="gBT472l6DTMxymifZ7BF-31" value="" style="verticalLabelPosition=bottom;shadow=0;dashed=0;align=center;html=1;verticalAlign=top;shape=mxgraph.electrical.logic_gates.d_type_flip-flop;" vertex="1" parent="1">
          <mxGeometry x="500" y="180" width="100" height="80" as="geometry" />
        </mxCell>
        <mxCell id="gBT472l6DTMxymifZ7BF-33" style="edgeStyle=orthogonalEdgeStyle;rounded=0;orthogonalLoop=1;jettySize=auto;html=1;exitX=1;exitY=0.25;exitDx=0;exitDy=0;exitPerimeter=0;endArrow=none;endFill=0;" edge="1" parent="1" source="gBT472l6DTMxymifZ7BF-32">
          <mxGeometry relative="1" as="geometry">
            <mxPoint x="120" y="255" as="targetPoint" />
            <Array as="points">
              <mxPoint x="610" y="405" />
              <mxPoint x="610" y="480" />
              <mxPoint x="110" y="480" />
              <mxPoint x="110" y="255" />
            </Array>
          </mxGeometry>
        </mxCell>
        <mxCell id="gBT472l6DTMxymifZ7BF-32" value="" style="verticalLabelPosition=bottom;shadow=0;dashed=0;align=center;html=1;verticalAlign=top;shape=mxgraph.electrical.logic_gates.d_type_flip-flop;" vertex="1" parent="1">
          <mxGeometry x="500" y="385" width="100" height="80" as="geometry" />
        </mxCell>
        <mxCell id="gBT472l6DTMxymifZ7BF-35" style="edgeStyle=orthogonalEdgeStyle;rounded=0;orthogonalLoop=1;jettySize=auto;html=1;exitX=1;exitY=0.5;exitDx=0;exitDy=0;exitPerimeter=0;entryX=0;entryY=0.25;entryDx=0;entryDy=0;entryPerimeter=0;endArrow=none;endFill=0;" edge="1" parent="1" source="gBT472l6DTMxymifZ7BF-26" target="gBT472l6DTMxymifZ7BF-32">
          <mxGeometry relative="1" as="geometry" />
        </mxCell>
        <mxCell id="gBT472l6DTMxymifZ7BF-36" value="" style="endArrow=oval;html=1;rounded=0;endFill=1;" edge="1" parent="1">
          <mxGeometry width="50" height="50" relative="1" as="geometry">
            <mxPoint x="60" y="435" as="sourcePoint" />
            <mxPoint x="145" y="435" as="targetPoint" />
          </mxGeometry>
        </mxCell>
        <mxCell id="gBT472l6DTMxymifZ7BF-37" value="" style="endArrow=oval;html=1;rounded=0;endFill=1;" edge="1" parent="1">
          <mxGeometry width="50" height="50" relative="1" as="geometry">
            <mxPoint x="60" y="405" as="sourcePoint" />
            <mxPoint x="195" y="405" as="targetPoint" />
          </mxGeometry>
        </mxCell>
        <mxCell id="gBT472l6DTMxymifZ7BF-38" value="valid" style="text;html=1;align=center;verticalAlign=middle;resizable=0;points=[];autosize=1;strokeColor=none;fillColor=none;" vertex="1" parent="1">
          <mxGeometry x="10" y="390" width="50" height="30" as="geometry" />
        </mxCell>
        <mxCell id="gBT472l6DTMxymifZ7BF-39" value="rw" style="text;html=1;align=center;verticalAlign=middle;resizable=0;points=[];autosize=1;strokeColor=none;fillColor=none;" vertex="1" parent="1">
          <mxGeometry x="15" y="420" width="40" height="30" as="geometry" />
        </mxCell>
      </root>
    </mxGraphModel>
  </diagram>
</mxfile>
